<svg width="120" height="42" viewBox="0 0 120 42" fill="none" xmlns="http://www.w3.org/2000/svg">
<g clip-path="url(#clip0_42_2980)">
<path fill-rule="evenodd" clip-rule="evenodd" d="M56.9658 30.4965C59.3074 30.5439 61.5766 29.6841 63.2989 28.097L61.794 26.4822C60.4869 27.6291 58.798 28.2455 57.0595 28.21C53.2228 28.21 50.103 25.4681 50.103 21.3698C50.103 17.2716 53.2066 14.5329 57.0433 14.5329C58.7866 14.5106 60.4752 15.1407 61.7778 16.2995L63.2989 14.6362C61.5726 13.0654 59.3159 12.2059 56.9819 12.2302C51.9826 12.2302 47.697 15.8021 47.697 21.3634C47.697 26.9246 51.9826 30.4965 56.9819 30.4965H56.9658Z" fill="black"/>
<path fill-rule="evenodd" clip-rule="evenodd" d="M80.8483 12.5953V15.9895C79.5306 13.6223 76.8243 12.2303 73.8563 12.2303C68.9313 12.2303 64.946 16.0251 64.946 21.3635C64.946 26.7019 68.97 30.5354 73.8563 30.5354C76.7888 30.5354 79.5306 29.1434 80.8483 26.7374V30.1607H83.2511V12.5953H80.8483ZM74.0437 28.2424C70.3588 28.2424 67.3521 25.2357 67.3521 21.3247C67.3375 20.4372 67.4998 19.5557 67.8297 18.7317C68.1596 17.9076 68.6503 17.1576 69.2733 16.5253C69.8962 15.893 70.6389 15.3912 71.458 15.0491C72.277 14.7071 73.156 14.5316 74.0437 14.533C74.9486 14.5258 75.8457 14.7006 76.6817 15.0469C77.5178 15.3932 78.2757 15.9041 78.9104 16.5491C79.5451 17.194 80.0438 17.96 80.3767 18.8015C80.7096 19.643 80.87 20.5428 80.8483 21.4475C80.8483 25.5134 77.6898 28.2424 74.0437 28.2424Z" fill="black"/>
<path fill-rule="evenodd" clip-rule="evenodd" d="M86.4225 30.1606H88.8285V12.6049H86.4225V30.1606Z" fill="black"/>
<path fill-rule="evenodd" clip-rule="evenodd" d="M87.6239 9.43678C88.6768 9.43678 89.5035 8.72305 89.5035 7.7445C89.5035 6.76595 88.6768 6.0167 87.6239 6.0167C87.3892 6.00764 87.155 6.04532 86.935 6.12753C86.7149 6.20975 86.5134 6.33487 86.3422 6.49562C86.1709 6.65638 86.0333 6.84956 85.9373 7.06396C85.8413 7.27835 85.7889 7.50968 85.7831 7.7445C85.8032 8.21287 86.0084 8.65411 86.3535 8.97139C86.6986 9.28866 87.1555 9.45603 87.6239 9.43678Z" fill="black"/>
<path fill-rule="evenodd" clip-rule="evenodd" d="M113.034 12.2303C110.889 12.2303 107.847 12.9441 106.575 16.4287C105.606 13.7224 103.268 12.2303 100.41 12.2303C97.826 12.2303 95.2973 13.4317 94.3962 15.7635V12.5953H91.9902V30.1607H94.3962V20.4237C94.4705 16.2253 97.1769 14.5588 99.9963 14.5588C102.816 14.5588 104.808 16.629 104.808 20.0491V30.1607H107.176V21.0631L107.214 21.2149C106.949 16.9293 109.355 14.5233 112.663 14.5588C115.569 14.5588 117.588 16.6645 117.588 20.0491V30.1607H119.994V19.936C119.994 15.0917 117.287 12.2303 113.04 12.2303H113.034Z" fill="black"/>
<path fill-rule="evenodd" clip-rule="evenodd" d="M23.2526 4.65699C27.4416 4.65544 31.5014 6.10648 34.7404 8.76285C37.9793 11.4192 40.1969 15.1165 41.0153 19.2247C41.8337 23.3329 41.2022 27.5978 39.2284 31.2926C37.2546 34.9873 34.0607 37.8834 30.191 39.4871C26.3212 41.0909 22.0151 41.3032 18.0063 40.0878C13.9976 38.8724 10.5344 36.3045 8.20679 32.8218C5.8792 29.3391 4.8313 25.157 5.24165 20.9882C5.65201 16.8194 7.49523 12.9219 10.4572 9.9599C12.1356 8.27675 14.13 6.94182 16.3258 6.03177C18.5217 5.12173 20.8757 4.65453 23.2526 4.65699ZM34.7078 11.3034C32.0588 8.65547 28.5737 7.00795 24.8461 6.64154C21.1186 6.27513 17.3794 7.21249 14.2655 9.29392C11.1516 11.3754 8.85569 14.4721 7.76901 18.0565C6.68234 21.6408 6.87209 25.4911 8.30593 28.9513C9.73978 32.4115 12.329 35.2674 15.6325 37.0326C18.9359 38.7978 22.7492 39.3629 26.4227 38.6318C30.0961 37.9006 33.4024 35.9184 35.7782 33.0229C38.154 30.1273 39.4524 26.4976 39.452 22.7521C39.4541 20.6254 39.0361 18.5192 38.2219 16.5545C37.4078 14.5898 36.2136 12.8053 34.7078 11.3034Z" fill="#36C9B8"/>
<path fill-rule="evenodd" clip-rule="evenodd" d="M18.1016 4.88306C22.2904 4.88226 26.3498 6.33393 29.5883 8.99071C32.8267 11.6475 35.0437 15.345 35.8615 19.4532C36.6793 23.5614 36.0473 27.826 34.0731 31.5204C32.099 35.2148 28.9049 38.1104 25.0352 39.7138C21.1654 41.3172 16.8594 41.5291 12.8509 40.3135C8.84238 39.0979 5.3794 36.5299 3.05204 33.0472C0.724686 29.5645 -0.323041 25.3825 0.0873933 21.2139C0.497828 17.0453 2.34103 13.1479 5.30291 10.186C6.9821 8.50301 8.9771 7.16823 11.1734 6.25822C13.3698 5.34821 15.7242 4.88088 18.1016 4.88306ZM29.5535 11.5359C26.9046 8.8881 23.4196 7.2406 19.6922 6.87411C15.9649 6.50762 12.2257 7.4448 9.11183 9.526C5.99795 11.6072 3.70198 14.7037 2.61507 18.2878C1.52816 21.872 1.71757 25.7221 3.15102 29.1823C4.58447 32.6425 7.17328 35.4987 10.4764 37.2642C13.7795 39.0297 17.5926 39.5954 21.266 38.8648C24.9394 38.1342 28.2459 36.1526 30.6221 33.2576C32.9983 30.3626 34.2973 26.7332 34.2977 22.9879C34.3002 20.8606 33.8824 18.7538 33.0683 16.7885C32.2541 14.8232 31.0597 13.0382 29.5535 11.5359Z" fill="#36C9B8"/>
<path fill-rule="evenodd" clip-rule="evenodd" d="M20.7014 2.58276e-05C24.8848 0.00182199 28.9383 1.45389 32.1713 4.10889C35.4044 6.76388 37.617 10.4576 38.4323 14.5609C39.2476 18.6641 38.6151 22.9231 36.6427 26.6124C34.6702 30.3017 31.4798 33.1931 27.6148 34.7941C23.7498 36.3951 19.4493 36.6067 15.4458 35.3928C11.4423 34.1789 7.98349 31.6146 5.65847 28.1367C3.33345 24.6588 2.28604 20.4824 2.69466 16.3189C3.10328 12.1555 4.94266 8.26243 7.89947 5.30293C9.57819 3.61844 11.5736 2.28268 13.7707 1.37258C15.9678 0.462472 18.3232 -0.00399923 20.7014 2.58276e-05ZM32.1533 6.64965C29.5036 3.99773 26.0162 2.3467 22.2855 1.97793C18.5548 1.60916 14.8117 2.54546 11.694 4.62728C8.57636 6.70909 6.27704 9.80759 5.18792 13.3948C4.0988 16.9819 4.28728 20.8358 5.72123 24.2995C7.15519 27.7633 9.74589 30.6226 13.0518 32.3903C16.3578 34.158 20.1744 34.7245 23.8513 33.9935C27.5282 33.2624 30.8378 31.279 33.2161 28.3812C35.5945 25.4833 36.8944 21.8504 36.8943 18.1016C36.8972 15.9746 36.4799 13.8679 35.6663 11.9026C34.8527 9.93736 33.6589 8.15218 32.1533 6.64965Z" fill="#36C9B8"/>
</g>
<defs>
<clipPath id="clip0_42_2980">
<rect width="120" height="41.0894" fill="white"/>
</clipPath>
</defs>
</svg>
