<svg width="21" height="21" viewBox="0 0 21 21" fill="none" xmlns="http://www.w3.org/2000/svg">
<mask id="mask0_238_2323" style="mask-type:alpha" maskUnits="userSpaceOnUse" x="0" y="0" width="21" height="21">
<rect width="21" height="21" fill="#D9D9D9"/>
</mask>
<g mask="url(#mask0_238_2323)">
<mask id="mask1_238_2323" style="mask-type:alpha" maskUnits="userSpaceOnUse" x="-1" y="-2" width="24" height="24">
<rect x="-1" y="-2" width="24" height="24" fill="#D9D9D9"/>
</mask>
<g mask="url(#mask1_238_2323)">
<path d="M13.5 9.75C13.15 9.75 12.8542 9.62917 12.6125 9.3875C12.3708 9.14583 12.25 8.85 12.25 8.5C12.25 8.15 12.3708 7.85417 12.6125 7.6125C12.8542 7.37083 13.15 7.25 13.5 7.25C13.85 7.25 14.1458 7.37083 14.3875 7.6125C14.6292 7.85417 14.75 8.15 14.75 8.5C14.75 8.85 14.6292 9.14583 14.3875 9.3875C14.1458 9.62917 13.85 9.75 13.5 9.75ZM8.5 9.75C8.15 9.75 7.85417 9.62917 7.6125 9.3875C7.37083 9.14583 7.25 8.85 7.25 8.5C7.25 8.15 7.37083 7.85417 7.6125 7.6125C7.85417 7.37083 8.15 7.25 8.5 7.25C8.85 7.25 9.14583 7.37083 9.3875 7.6125C9.62917 7.85417 9.75 8.15 9.75 8.5C9.75 8.85 9.62917 9.14583 9.3875 9.3875C9.14583 9.62917 8.85 9.75 8.5 9.75ZM11 15C10 15 9.09583 14.725 8.2875 14.175C7.47917 13.625 6.88333 12.9 6.5 12H15.5C15.1167 12.9 14.5208 13.625 13.7125 14.175C12.9042 14.725 12 15 11 15ZM11 19C9.75 19 8.57917 18.7625 7.4875 18.2875C6.39583 17.8125 5.44583 17.1708 4.6375 16.3625C3.82917 15.5542 3.1875 14.6042 2.7125 13.5125C2.2375 12.4208 2 11.25 2 10C2 8.75 2.2375 7.57917 2.7125 6.4875C3.1875 5.39583 3.82917 4.44583 4.6375 3.6375C5.44583 2.82917 6.39583 2.1875 7.4875 1.7125C8.57917 1.2375 9.75 1 11 1C12.25 1 13.4208 1.2375 14.5125 1.7125C15.6042 2.1875 16.5542 2.82917 17.3625 3.6375C18.1708 4.44583 18.8125 5.39583 19.2875 6.4875C19.7625 7.57917 20 8.75 20 10C20 11.25 19.7625 12.4208 19.2875 13.5125C18.8125 14.6042 18.1708 15.5542 17.3625 16.3625C16.5542 17.1708 15.6042 17.8125 14.5125 18.2875C13.4208 18.7625 12.25 19 11 19ZM11 17C12.9333 17 14.5833 16.3167 15.95 14.95C17.3167 13.5833 18 11.9333 18 10C18 8.06667 17.3167 6.41667 15.95 5.05C14.5833 3.68333 12.9333 3 11 3H10.7C10.6 3 10.5 3.01667 10.4 3.05C10.3 3.15 10.2333 3.25833 10.2 3.375C10.1667 3.49167 10.15 3.61667 10.15 3.75C10.15 4.1 10.2708 4.39583 10.5125 4.6375C10.7542 4.87917 11.05 5 11.4 5C11.55 5 11.6875 4.975 11.8125 4.925C11.9375 4.875 12.0667 4.85 12.2 4.85C12.4 4.85 12.5667 4.925 12.7 5.075C12.8333 5.225 12.9 5.4 12.9 5.6C12.9 5.98333 12.7208 6.22917 12.3625 6.3375C12.0042 6.44583 11.6833 6.5 11.4 6.5C10.65 6.5 10.0042 6.22917 9.4625 5.6875C8.92083 5.14583 8.65 4.5 8.65 3.75V3.6C8.65 3.55 8.65833 3.48333 8.675 3.4C7.29167 3.9 6.16667 4.74167 5.3 5.925C4.43333 7.10833 4 8.46667 4 10C4 11.9333 4.68333 13.5833 6.05 14.95C7.41667 16.3167 9.06667 17 11 17Z" fill="#1C1B1F"/>
</g>
</g>
</svg>
