<svg width="268" height="183" viewBox="0 0 268 183" fill="none" xmlns="http://www.w3.org/2000/svg">
<g clip-path="url(#clip0_44_72)">
<path d="M44.2864 129.201C42.9951 129.34 41.5863 129.549 40.0878 129.854C33.7341 131.149 33.6022 135.468 33.6579 136.458L33.6147 136.431C32.9759 137.457 32.5757 138.495 32.3339 139.475L32.0429 126.239C32.2311 125.846 32.4023 125.401 32.545 124.945C33.0206 126.411 33.8002 127.796 34.4723 127.704C35.3462 127.584 35.7272 125.011 35.5642 123.181C36.6755 124.614 38.5457 126.146 39.2513 125.674C39.815 125.296 39.4807 123.742 38.8652 122.329C40.1477 123.103 41.5682 123.611 42.0089 123.12C42.6104 122.45 41.1691 120.163 39.84 118.886C41.6191 119.052 43.8819 118.769 44.0303 117.958C44.1525 117.29 42.8058 116.448 41.3644 115.905C42.8122 115.523 44.1661 114.857 44.1212 114.199C44.0678 113.416 42.0578 112.892 40.3237 112.812C41.6317 111.788 42.8334 110.372 42.4659 109.732C42.128 109.143 40.5563 109.371 39.1061 109.89C39.9643 108.661 40.5676 107.278 40.1081 106.804C39.5358 106.214 37.5043 107.232 36.1179 108.358C36.3878 106.604 36.2514 104.391 35.4657 104.191C34.8083 104.023 33.8767 105.311 33.238 106.713C32.9557 105.241 32.3843 103.844 31.7247 103.844C30.7852 103.844 30.0235 106.68 30.0235 108.527C30.0235 108.631 30.0263 108.73 30.031 108.824C29.9367 108.714 29.8287 108.6 29.7054 108.48C28.3814 107.193 25.8186 105.764 25.164 106.439C24.7045 106.913 25.3079 108.297 26.1661 109.525C24.7159 109.006 23.1441 108.778 22.8063 109.367C22.3523 110.158 24.2929 112.133 25.8702 113.09C25.7754 113.079 25.6758 113.069 25.5698 113.062C23.7285 112.936 20.8504 113.504 20.7865 114.442C20.7416 115.101 22.0955 115.766 23.5433 116.149C22.1018 116.691 20.7551 117.534 20.8774 118.201C21.0257 119.012 23.2885 119.296 25.0677 119.13C23.7385 120.406 22.2972 122.693 22.8987 123.363C23.3395 123.854 24.7599 123.346 26.0424 122.572C25.4269 123.985 25.0926 125.539 25.6564 125.917C26.4014 126.416 28.4448 124.68 29.5222 123.186C29.4124 125.013 29.8493 127.524 30.7162 127.623C31.0788 127.665 31.4629 127.278 31.8096 126.682L30.8277 140.909C30.5982 142.566 32.0664 143.647 32.1976 144.329L32.4094 153.963C32.1704 153.277 31.8484 152.575 31.4144 151.878L31.3712 151.905C31.4269 150.915 31.295 146.596 24.9413 145.301C23.4428 144.996 22.0341 144.787 20.7427 144.648C19.2184 144.484 18.6238 146.573 20.0008 147.247C21.9951 148.224 23.871 149.455 24.8488 150.913C27.3486 154.64 30.8027 152.486 31.2938 152.151C31.8423 153.065 32.202 153.986 32.4292 154.862L32.5416 159.978C32.5141 160.099 32.495 160.167 32.4935 160.172L32.5462 160.188L32.8184 172.57L35.3434 172.549L34.4403 159.893C34.592 159.21 35.0589 156.885 34.4403 154.469L33.5371 144.525C33.5349 144.517 33.5884 144.786 33.5371 144.525L32.359 140.617C32.5303 139.409 32.9279 138.049 33.7354 136.704C34.2264 137.038 37.6805 139.192 40.1804 135.466C41.1581 134.008 43.0341 132.777 45.0283 131.8C46.4054 131.125 45.8108 129.037 44.2864 129.201ZM32.7521 158.496L32.7045 156.331C32.8005 157.149 32.7956 157.888 32.7521 158.496Z" fill="#F2F2F2"/>
<path d="M237.524 129.201C236.232 129.34 234.824 129.549 233.325 129.854C226.971 131.149 226.84 135.468 226.895 136.458L226.852 136.431C226.213 137.457 225.813 138.495 225.571 139.475L225.28 126.239C225.468 125.846 225.64 125.401 225.782 124.945C226.258 126.411 227.038 127.796 227.71 127.704C228.583 127.584 228.964 125.011 228.801 123.181C229.913 124.614 231.783 126.146 232.489 125.674C233.052 125.296 232.718 123.742 232.103 122.329C233.385 123.103 234.805 123.611 235.246 123.12C235.848 122.45 234.406 120.163 233.077 118.886C234.856 119.052 237.119 118.769 237.268 117.958C237.39 117.29 236.043 116.448 234.602 115.905C236.049 115.523 237.403 114.857 237.358 114.199C237.305 113.416 235.295 112.892 233.561 112.812C234.869 111.788 236.071 110.372 235.703 109.732C235.365 109.143 233.794 109.371 232.343 109.89C233.202 108.661 233.805 107.278 233.345 106.804C232.773 106.214 230.742 107.232 229.355 108.358C229.625 106.604 229.489 104.391 228.703 104.191C228.046 104.023 227.114 105.311 226.475 106.713C226.193 105.241 225.622 103.844 224.962 103.844C224.022 103.844 223.261 106.68 223.261 108.527C223.261 108.631 223.264 108.73 223.268 108.824C223.174 108.714 223.066 108.6 222.943 108.48C221.619 107.193 219.056 105.764 218.401 106.439C217.942 106.913 218.545 108.297 219.403 109.525C217.953 109.006 216.381 108.778 216.044 109.367C215.59 110.158 217.53 112.133 219.108 113.09C219.013 113.079 218.913 113.069 218.807 113.062C216.966 112.936 214.088 113.504 214.024 114.442C213.979 115.101 215.333 115.766 216.781 116.149C215.339 116.691 213.992 117.534 214.115 118.201C214.263 119.012 216.526 119.296 218.305 119.13C216.976 120.406 215.535 122.693 216.136 123.363C216.577 123.854 217.997 123.346 219.28 122.572C218.664 123.985 218.33 125.539 218.894 125.917C219.639 126.416 221.682 124.68 222.759 123.186C222.65 125.013 223.087 127.524 223.954 127.623C224.316 127.665 224.7 127.278 225.047 126.682L224.065 140.909C223.835 142.566 225.304 143.647 225.435 144.329L225.647 153.963C225.408 153.277 225.086 152.575 224.652 151.878L224.609 151.905C224.664 150.915 224.532 146.596 218.179 145.301C216.68 144.996 215.271 144.787 213.98 144.648C212.456 144.484 211.861 146.573 213.238 147.247C215.232 148.224 217.108 149.455 218.086 150.913C220.586 154.64 224.04 152.486 224.531 152.151C225.08 153.065 225.439 153.986 225.666 154.862L225.779 159.978C225.751 160.099 225.732 160.167 225.731 160.172L225.784 160.188L226.056 172.57L228.581 172.549L227.678 159.893C227.829 159.21 228.296 156.885 227.678 154.469L226.774 144.525C226.772 144.517 226.826 144.786 226.774 144.525L225.596 140.617C225.768 139.409 226.165 138.049 226.973 136.704C227.464 137.038 230.918 139.192 233.418 135.466C234.395 134.008 236.271 132.777 238.266 131.8C239.643 131.125 239.048 129.037 237.524 129.201ZM225.989 158.496L225.942 156.331C226.038 157.149 226.033 157.888 225.989 158.496Z" fill="#F2F2F2"/>
<path d="M198.321 88.68L197.137 60.4256C197.137 60.4256 195.807 43.6515 194.743 37.7938C193.679 31.9362 186.497 33.5337 186.497 33.5337L187.295 50.3079L190.738 67.474L193.418 90.8494C193.28 91.5256 193.202 92.2606 193.202 93.0323C193.202 96.3071 194.568 98.9618 196.253 98.9618C197.939 98.9618 199.305 96.3071 199.305 93.0323C199.305 91.3096 198.925 89.7634 198.321 88.68Z" fill="#FFB6B6"/>
<path d="M140.686 81.3591C141.945 79.858 143.453 78.8379 144.807 78.4453L160.732 60.4256C160.732 60.4256 162.062 43.6514 163.126 37.7938C164.19 31.9362 171.372 33.5337 171.372 33.5337L170.574 50.3079L166.052 68.4133L147.417 84.2493C147.092 84.8427 146.693 85.4359 146.215 86.0056C143.948 88.7085 140.872 89.8594 139.346 88.5763C137.819 87.2932 138.419 84.0619 140.686 81.3591Z" fill="#FFB6B6"/>
<path d="M175.725 31.2706L177.572 24.1619L184.769 23.8154L186.922 33.6145L175.725 31.2706Z" fill="#FFB6B6"/>
<path opacity="0.1" d="M175.725 31.2706L177.572 24.1619L184.769 23.8154L186.922 33.6145L175.725 31.2706Z" fill="black"/>
<path d="M157.347 147.73L150.606 147.344L151.491 168.051L156.058 168.312L157.347 147.73Z" fill="#FFB6B6"/>
<path d="M150.907 161.504L153.247 162.573L153.244 163.993C153.244 163.993 153.809 162.349 156.84 161.991L157.201 163.367C157.201 163.367 158.377 164.718 158.175 167.161L157.404 173.703L155.118 173.65L154.749 169.098C154.749 169.098 154.119 168.065 151.219 172.973C151.219 172.973 148.024 173.779 143.076 172.119C142.396 171.891 141.924 171.255 141.933 170.537C141.938 170.141 142.092 169.775 142.589 169.644C143.852 169.309 145.086 169.733 145.901 168.724C146.717 167.715 150.907 161.504 150.907 161.504Z" fill="#2F2E41"/>
<path d="M193.523 147.73L186.782 147.344L187.666 168.051L192.234 168.312L193.523 147.73Z" fill="#FFB6B6"/>
<path d="M187.082 161.504L189.423 162.573L189.42 163.993C189.42 163.993 189.985 162.349 193.015 161.991L193.377 163.367C193.377 163.367 194.553 164.718 194.351 167.161L193.58 173.703L191.294 173.65L190.925 169.098C190.925 169.098 190.295 168.065 187.395 172.973C187.395 172.973 184.2 173.779 179.252 172.119C178.572 171.891 178.1 171.255 178.109 170.537C178.113 170.141 178.268 169.775 178.764 169.644C180.028 169.309 181.261 169.733 182.077 168.724C182.893 167.715 187.082 161.504 187.082 161.504Z" fill="#2F2E41"/>
<path d="M181.257 28.3482C185.664 28.3482 189.237 24.772 189.237 20.3605C189.237 15.949 185.664 12.3728 181.257 12.3728C176.85 12.3728 173.277 15.949 173.277 20.3605C173.277 24.772 176.85 28.3482 181.257 28.3482Z" fill="#FFB6B6"/>
<path d="M185.782 21.6883C185.782 21.6883 182.274 15.942 178.762 16.5763C175.25 17.2105 173.419 17.7832 173.419 17.7832C173.419 17.7832 171.989 13.2016 176.79 11.0035C176.79 11.0035 169.995 5.30877 177.237 1.65406C184.479 -2.00065 188.986 1.54135 188.986 1.54135C188.986 1.54135 194.98 6.62966 188.334 11.3387C188.334 11.3387 194.086 17.8971 188.277 24.1619C188.277 24.1619 189.302 19.3916 187.907 20.3695C186.512 21.3475 185.782 21.6883 185.782 21.6883Z" fill="#2F2E41"/>
<path d="M186.63 31.803L175.724 30.4717L167.346 37.2612C167.346 37.2612 163.178 48.8834 166.282 55.8991C166.356 56.0672 166.415 67.7475 166.415 67.7475H189.586C189.586 67.7475 189.563 59.7973 190.449 56.9179C190.575 56.5065 190.72 56.1987 190.886 56.0323C192.216 54.701 195.408 46.1808 193.812 42.4532C192.216 38.7256 186.63 31.803 186.63 31.803Z" fill="#36C9B8"/>
<path d="M166.282 67.2151L151.652 113.81L148.46 150.553H157.371L164.952 116.472L175.392 96.7444L185.7 153.216H194.694L194.478 76.8003L189.567 67.2151H166.282Z" fill="#2F2E41"/>
<path d="M268 172.634H0V173.452H268V172.634Z" fill="#3F3D56"/>
<path d="M137.376 76.6453C134.719 72.3636 128.522 71.3562 123.919 73.3987C119.315 75.4413 116.133 79.7962 113.97 84.3476C111.807 88.899 110.447 93.8028 108.224 98.325C101.682 111.631 88.4357 120.321 80.103 132.583C73.8421 141.796 70.5267 152.983 70.7552 164.123C70.8427 168.39 71.5321 172.879 74.1924 176.214C78.1411 181.165 85.1321 182.18 91.4271 182.832C95.0838 183.211 99.5719 183.2 101.455 180.04C102.2 178.79 94.1951 174.428 94.3236 172.979C95.0166 165.155 103.86 160.186 104.553 152.362C105.64 157.814 104.247 163.442 104.467 168.997C104.687 174.551 107.422 180.834 112.856 181.983C114.533 182.337 116.426 182.092 117.697 180.941C118.968 179.79 119.339 177.616 118.207 176.328C119.366 177.514 121.323 177.822 122.789 177.05C124.256 176.278 125.112 174.491 124.794 172.863C124.56 171.666 123.789 170.659 123.12 169.639C119.5 164.114 118.557 156.915 120.632 150.642C124.299 139.555 136.344 132.317 138.384 120.818C139.9 112.277 135.577 102.6 140.164 95.2417C142.231 91.9254 145.742 89.8349 148.541 87.1099C151.341 84.3849 153.531 80.2157 151.928 76.651L137.618 76.6354" fill="#3F3D56"/>
<path d="M93.2435 174.527C92.8873 174.527 92.5224 174.432 92.1697 174.242C91.3573 173.806 90.7447 172.944 90.6089 172.046C90.3829 170.551 91.094 169.1 91.6654 167.934C93.2285 164.745 94.7735 161.334 95.0012 157.791C95.25 153.923 93.6823 150.337 91.0075 148.655C89.0197 147.406 86.3655 147.085 83.5344 147.751C81.0268 148.342 78.7741 149.548 76.299 150.948C76.1024 151.059 75.8534 150.99 75.7424 150.793C75.6314 150.597 75.7007 150.347 75.8971 150.236C78.3345 148.857 80.7384 147.569 83.3473 146.955C86.3929 146.239 89.2676 146.596 91.442 147.963C94.3672 149.802 96.0843 153.68 95.8167 157.844C95.5793 161.537 93.9981 165.031 92.3989 168.294C91.8505 169.413 91.229 170.682 91.4168 171.923C91.5139 172.566 91.9716 173.208 92.5559 173.522C92.8405 173.675 93.2744 173.812 93.7252 173.602C93.93 173.506 94.1728 173.595 94.268 173.8C94.3633 174.005 94.2748 174.248 94.0703 174.343C93.8076 174.466 93.5285 174.527 93.2435 174.527Z" fill="#2F2E41"/>
<path d="M124.552 76.3647C124.017 77.8313 124.731 79.475 125.72 80.6821C126.709 81.8893 127.98 82.86 128.851 84.1548C130.678 86.8687 130.404 90.5789 129 93.5344C127.596 96.4899 125.23 98.8579 122.909 101.163C123.08 100.174 122.581 99.1767 121.901 98.4402C121.22 97.7037 120.364 97.157 119.603 96.5042C116.06 93.464 114.952 87.9239 117.052 83.7526" fill="#2F2E41"/>
<path d="M76.1605 163.618C73.1595 163.25 70.6244 165.953 67.6294 166.367C64.166 166.846 60.9809 164.103 59.44 160.962C57.899 157.82 57.5036 154.254 56.4435 150.919C55.3834 147.584 53.3381 144.207 50.006 143.147C48.608 142.702 47.0263 142.726 45.7276 143.409C44.4289 144.091 43.4771 145.485 43.5096 146.953C43.5496 148.759 44.9334 150.205 45.7717 151.805C47.1057 154.351 47.0643 157.366 47.6535 160.18C49.0701 166.944 54.5675 172.681 61.261 174.379C64.7224 175.257 68.5973 175.056 71.5957 173.115C74.5942 171.174 76.4217 167.265 75.3118 163.868" fill="#3F3D56"/>
</g>
<defs>
<clipPath id="clip0_44_72">
<rect width="268" height="183" fill="white"/>
</clipPath>
</defs>
</svg>
