<svg width="21" height="21" viewBox="0 0 21 21" fill="none" xmlns="http://www.w3.org/2000/svg">
<mask id="mask0_238_2320" style="mask-type:alpha" maskUnits="userSpaceOnUse" x="0" y="0" width="21" height="21">
<rect width="21" height="21" fill="#D9D9D9"/>
</mask>
<g mask="url(#mask0_238_2320)">
<path d="M3.5 18.375V10.1719L1.925 11.375L0.875 9.975L3.5 7.9625V5.25H5.25V6.62813L10.5 2.625L20.125 9.975L19.075 11.3531L17.5 10.1719V18.375H3.5ZM5.25 16.625H9.625V13.125H11.375V16.625H15.75V8.8375L10.5 4.83438L5.25 8.8375V16.625ZM3.5 4.375C3.5 3.64583 3.75521 3.02604 4.26562 2.51562C4.77604 2.00521 5.39583 1.75 6.125 1.75C6.37292 1.75 6.58073 1.66615 6.74844 1.49844C6.91615 1.33073 7 1.12292 7 0.875H8.75C8.75 1.60417 8.49479 2.22396 7.98438 2.73438C7.47396 3.24479 6.85417 3.5 6.125 3.5C5.87708 3.5 5.66927 3.58385 5.50156 3.75156C5.33385 3.91927 5.25 4.12708 5.25 4.375H3.5Z" fill="#1C1B1F"/>
</g>
</svg>
