<?xml version="1.0" encoding="UTF-8" standalone="no"?>
<svg
   width="13.45829"
   height="13.45835"
   viewBox="0 0 13.45829 13.45835"
   fill="none"
   version="1.1"
   id="svg1"
   sodipodi:docname="icon-kid.svg"
   inkscape:export-filename="icon-kid.svg"
   inkscape:export-xdpi="300"
   inkscape:export-ydpi="300"
   xmlns:inkscape="http://www.inkscape.org/namespaces/inkscape"
   xmlns:sodipodi="http://sodipodi.sourceforge.net/DTD/sodipodi-0.dtd"
   xmlns="http://www.w3.org/2000/svg"
   xmlns:svg="http://www.w3.org/2000/svg">
  <defs
     id="defs1" />
  <sodipodi:namedview
     id="namedview1"
     pagecolor="#ffffff"
     bordercolor="#666666"
     borderopacity="1.0"
     inkscape:showpageshadow="2"
     inkscape:pageopacity="0.0"
     inkscape:pagecheckerboard="0"
     inkscape:deskcolor="#d1d1d1" />
  <g
     id="atom_kid"
     transform="translate(-2.77051,-2.77075)">
    <mask
       id="mask0_383_1070"
       maskUnits="userSpaceOnUse"
       x="0"
       y="0"
       width="19"
       height="19">
      <rect
         id="Bounding box"
         width="19"
         height="19"
         fill="#d9d9d9"
         x="0"
         y="0" />
    </mask>
    <g
       mask="url(#mask0_383_1070)"
       id="g1">
      <path
         id="child_care"
         d="m 11.4393,9.18325 c -0.2507,0 -0.4584,-0.08576 -0.6231,-0.25729 -0.1652,-0.17153 -0.2478,-0.37604 -0.2478,-0.61354 0,-0.2375 0.0826,-0.44202 0.2478,-0.61354 0.1647,-0.17153 0.3724,-0.2573 0.6231,-0.2573 0.2375,0 0.442,0.08577 0.6135,0.2573 0.1715,0.17152 0.2573,0.37604 0.2573,0.61354 0,0.2375 -0.0858,0.44201 -0.2573,0.61354 -0.1715,0.17153 -0.376,0.25729 -0.6135,0.25729 z m -3.87921,0 C 7.32259,9.18325 7.11808,9.09749 6.94655,8.92596 6.77502,8.75443 6.68926,8.54992 6.68926,8.31242 c 0,-0.2375 0.08576,-0.44202 0.25729,-0.61354 0.17153,-0.17153 0.37604,-0.2573 0.61354,-0.2573 0.2507,0 0.45864,0.08577 0.62383,0.2573 0.16467,0.17152 0.247,0.37604 0.247,0.61354 0,0.2375 -0.08233,0.44201 -0.247,0.61354 C 8.01873,9.09749 7.81079,9.18325 7.56009,9.18325 Z m 1.93958,3.97815 c -0.7125,0 -1.36219,-0.1913 -1.94908,-0.574 -0.58742,-0.3826 -1.03946,-0.884 -1.35612,-1.5041 h 6.61043 c -0.3167,0.6201 -0.7685,1.1215 -1.3554,1.5041 -0.5874,0.3827 -1.2373,0.574 -1.94983,0.574 z m 0,3.0677 c -0.9368,0 -1.8108,-0.1781 -2.622,-0.5344 C 6.06595,15.3385 5.35662,14.8569 4.74967,14.2499 4.14273,13.643 3.66113,12.9336 3.30488,12.1219 2.94863,11.3107 2.77051,10.4367 2.77051,9.49992 c 0,-0.93681 0.17812,-1.81081 0.53437,-2.622 0.35625,-0.81172 0.83785,-1.52106 1.44479,-2.128 0.60695,-0.60695 1.31628,-1.08854 2.128,-1.44479 0.8112,-0.35625 1.6852,-0.53438 2.622,-0.53438 0.93683,0 1.81083,0.17813 2.62203,0.53438 0.8117,0.35625 1.521,0.83784 2.128,1.44479 0.6069,0.60694 1.0885,1.31628 1.4448,2.128 0.3562,0.81119 0.5343,1.68519 0.5343,2.622 0,0.93678 -0.1781,1.81078 -0.5343,2.62198 -0.3563,0.8117 -0.8379,1.5211 -1.4448,2.128 -0.607,0.607 -1.3163,1.0886 -2.128,1.4448 -0.8112,0.3563 -1.6852,0.5344 -2.62203,0.5344 z m 0,-1.1875 c 1.53053,0 2.83683,-0.541 3.91873,-1.6229 1.082,-1.082 1.6229,-2.3882 1.6229,-3.91878 0,-1.53056 -0.5409,-2.83681 -1.6229,-3.91875 C 12.3365,4.49922 11.0302,3.95825 9.49967,3.95825 9.39412,3.95825 9.2854,3.96142 9.17351,3.96775 9.06109,3.97461 8.95211,3.99124 8.84655,4.01763 8.78058,4.10999 8.74099,4.19575 8.7278,4.27492 8.7146,4.35409 8.70801,4.44645 8.70801,4.552 c 0,0.30347 0.10898,0.56393 0.32696,0.78138 0.21744,0.21797 0.4779,0.32696 0.78137,0.32696 0.13195,0 0.24406,-0.0198 0.33646,-0.05938 0.0924,-0.03958 0.1913,-0.05937 0.2969,-0.05937 0.1187,0 0.2211,0.04618 0.3071,0.13854 0.0855,0.09236 0.1283,0.20451 0.1283,0.33646 0,0.2375 -0.1219,0.39583 -0.3658,0.475 C 10.275,6.57075 10.0406,6.61034 9.81634,6.61034 9.24898,6.61034 8.76395,6.40899 8.36126,6.00629 7.95909,5.60413 7.75801,5.11936 7.75801,4.552 V 4.41346 C 7.75801,4.37388 7.7712,4.3145 7.79759,4.23534 6.67606,4.60478 5.75588,5.2645 5.03705,6.2145 4.31769,7.1645 3.95801,8.25964 3.95801,9.49992 c 0,1.53058 0.54097,2.83678 1.62291,3.91878 1.08195,1.0819 2.3882,1.6229 3.91875,1.6229 z"
         fill="#36c9b8" />
    </g>
  </g>
</svg>
