<svg width="14" height="16" viewBox="0 0 14 16" fill="none" xmlns="http://www.w3.org/2000/svg">
<g id="atom_cat">
<path id="Vector" d="M11.4997 5.57495C11.3804 5.21359 11.1539 4.8998 10.8522 4.67774C10.5505 4.45569 10.1886 4.33655 9.81762 4.3371H8.39287V0L7.79411 0.0879843C6.43585 0.287559 5.37783 0.995548 4.64977 2.19232C4.12485 3.055 3.88083 4.00664 3.76759 4.71841C2.98575 5.33717 2.30559 6.18912 1.74349 7.25441C1.26977 8.15206 0.877629 9.20416 0.577906 10.3815C0.0714719 12.3709 0.00291793 14.021 0.000262326 14.0903L0 16H1.04896V14.1238C1.06208 13.8462 1.39242 7.77196 4.55804 5.45901L4.7436 5.32341L4.77409 5.09136C4.93195 3.88993 5.4775 1.90557 7.34374 1.29562V5.41625H9.81762C9.9693 5.41578 10.1173 5.46425 10.2408 5.55484C10.3643 5.64542 10.4571 5.77356 10.5061 5.92122C10.9243 7.19111 11.643 8.78019 12.763 9.52696L12.4262 10.8263C12.3089 11.2896 12.0422 11.6983 11.6698 11.9855C11.2973 12.2726 10.8411 12.4212 10.3758 12.4069C9.4359 12.3779 8.45765 12.504 7.46809 12.7816L7.08146 12.89V16H8.13058V13.7226C8.85556 13.5464 9.59953 13.4667 10.3442 13.4855C11.0456 13.5054 11.7329 13.281 12.2947 12.8488C12.8566 12.4166 13.2601 11.8019 13.4398 11.1043L14 8.94328L13.5828 8.75935C12.8025 8.41537 12.0627 7.28446 11.4997 5.57495Z" fill="#36C9B8"/>
</g>
</svg>
