<?xml version="1.0" encoding="UTF-8" standalone="no"?>
<svg
   width="17"
   height="17"
   viewBox="0 0 17 17"
   fill="none"
   version="1.1"
   id="svg1"
   xmlns="http://www.w3.org/2000/svg"
   xmlns:svg="http://www.w3.org/2000/svg">
  <defs
     id="defs1" />
  <g
     id="hearing"
     transform="translate(-1,-2.127425)">
    <mask
       id="mask0_383_1026"
       maskUnits="userSpaceOnUse"
       x="0"
       y="0"
       width="19"
       height="19">
      <rect
         id="Bounding box"
         width="19"
         height="19"
         fill="#d9d9d9"
         x="0"
         y="0" />
    </mask>
    <g
       mask="url(#mask0_383_1026)"
       id="g1">
      <path
         id="hearing_2"
         d="m 13.4583,18.884 c -0.818,0 -1.4876,-0.2051 -2.0088,-0.6152 C 10.9283,17.8586 10.5292,17.2565 10.2521,16.4626 10.0278,15.801 9.81337,15.3379 9.60885,15.0733 9.40434,14.8087 8.93264,14.3852 8.19375,13.8031 7.37569,13.1415 6.72917,12.3939 6.25417,11.5603 5.77917,10.7267 5.54167,9.72768 5.54167,8.56329 5.54167,6.98872 6.07274,5.66886 7.1349,4.6037 8.19705,3.53855 9.51319,3.00597 11.0833,3.00597 c 1.5702,0 2.8863,0.53258 3.9485,1.59773 1.0621,1.06516 1.5932,2.38502 1.5932,3.95959 H 15.0417 C 15.0417,7.4386 14.6623,6.49584 13.9036,5.73501 13.145,4.97419 12.2049,4.59378 11.0833,4.59378 9.96181,4.59378 9.0217,4.97419 8.26302,5.73501 7.50434,6.49584 7.125,7.4386 7.125,8.56329 c 0,0.89976 0.17813,1.66721 0.53438,2.30231 0.35625,0.6351 0.86423,1.2041 1.52395,1.7069 0.68611,0.5028 1.22047,0.9924 1.60317,1.4687 0.3826,0.4764 0.6663,0.9924 0.851,1.5481 0.1847,0.5822 0.4057,1.0123 0.663,1.2901 0.2573,0.2779 0.6433,0.4168 1.1578,0.4168 0.4355,0 0.8082,-0.1554 1.1183,-0.4664 0.31,-0.3109 0.4651,-0.6847 0.4651,-1.1214 h 1.5833 c 0,0.8733 -0.3101,1.6209 -0.9302,2.2428 -0.6201,0.6219 -1.3656,0.9328 -2.2365,0.9328 z M 4.90833,14.716 C 4.12986,13.9221 3.51302,12.9992 3.05781,11.9473 2.6026,10.8954 2.375,9.76738 2.375,8.56329 2.375,7.34598 2.6026,6.20805 3.05781,5.14951 3.51302,4.09097 4.12986,3.16475 4.90833,2.37085 L 6.05625,3.48231 C 5.39653,4.1439 4.88194,4.90803 4.5125,5.77471 4.14306,6.64139 3.95833,7.57091 3.95833,8.56329 c 0,0.97915 0.18473,1.89871 0.55417,2.75881 0.36944,0.8601 0.88403,1.6209 1.54375,2.2825 z m 6.17497,-4.1679 c -0.5541,0 -1.0225,-0.1952 -1.40517,-0.58555 C 9.29549,9.57221 9.10417,9.10579 9.10417,8.56329 9.10417,8.00756 9.29549,7.53784 9.67813,7.15412 10.0608,6.7704 10.5292,6.57854 11.0833,6.57854 c 0.5542,0 1.0226,0.19186 1.4052,0.57558 0.3827,0.38372 0.574,0.85344 0.574,1.40917 0,0.5425 -0.1913,1.00892 -0.574,1.39926 -0.3826,0.39035 -0.851,0.58555 -1.4052,0.58555 z"
         fill="#36c9b8" />
    </g>
  </g>
</svg>
