<?xml version="1.0" encoding="UTF-8" standalone="no"?>
<svg
   width="17"
   height="17"
   viewBox="0 0 17 17"
   fill="none"
   version="1.1"
   id="svg1"
   xmlns="http://www.w3.org/2000/svg"
   xmlns:svg="http://www.w3.org/2000/svg">
  <defs
     id="defs1" />
  <mask
     id="mask0_381_795"
     maskUnits="userSpaceOnUse"
     x="0"
     y="0"
     width="24"
     height="24">
    <rect
       width="24"
       height="24"
       fill="#d9d9d9"
       id="rect1"
       x="0"
       y="0" />
  </mask>
  <g
     mask="url(#mask0_381_795)"
     id="g1"
     transform="translate(-4,-3)">
    <path
       d="M 6.66667,20 C 6.20833,20 5.81597,19.8335 5.48958,19.5006 5.16319,19.1677 5,18.7675 5,18.3 V 6.4 C 5,5.9325 5.16319,5.53229 5.48958,5.19938 5.81597,4.86646 6.20833,4.7 6.66667,4.7 H 7.5 V 3 H 9.16667 V 4.7 H 15.8333 V 3 H 17.5 v 1.7 h 0.8333 c 0.4584,0 0.8507,0.16646 1.1771,0.49938 C 19.8368,5.53229 20,5.9325 20,6.4 v 11.9 c 0,0.4675 -0.1632,0.8677 -0.4896,1.2006 C 19.184,19.8335 18.7917,20 18.3333,20 Z m 0,-1.7 H 18.3333 V 9.8 H 6.66667 Z m 0,-10.2 H 18.3333 V 6.4 H 6.66667 Z M 12.5,13.2 c -0.2361,0 -0.434,-0.0815 -0.5938,-0.2444 -0.1597,-0.1629 -0.2395,-0.3648 -0.2395,-0.6056 0,-0.2408 0.0798,-0.4427 0.2395,-0.6056 C 12.066,11.5815 12.2639,11.5 12.5,11.5 c 0.2361,0 0.434,0.0815 0.5938,0.2444 0.1597,0.1629 0.2395,0.3648 0.2395,0.6056 0,0.2408 -0.0798,0.4427 -0.2395,0.6056 C 12.934,13.1185 12.7361,13.2 12.5,13.2 Z m -3.33333,0 C 8.93056,13.2 8.73264,13.1185 8.57292,12.9556 8.41319,12.7927 8.33333,12.5908 8.33333,12.35 c 0,-0.2408 0.07986,-0.4427 0.23959,-0.6056 C 8.73264,11.5815 8.93056,11.5 9.16667,11.5 c 0.23611,0 0.43402,0.0815 0.59375,0.2444 C 9.92014,11.9073 10,12.1092 10,12.35 10,12.5908 9.92014,12.7927 9.76042,12.9556 9.60069,13.1185 9.40278,13.2 9.16667,13.2 Z m 6.66663,0 c -0.2361,0 -0.434,-0.0815 -0.5937,-0.2444 C 15.0799,12.7927 15,12.5908 15,12.35 c 0,-0.2408 0.0799,-0.4427 0.2396,-0.6056 0.1597,-0.1629 0.3576,-0.2444 0.5937,-0.2444 0.2361,0 0.4341,0.0815 0.5938,0.2444 0.1597,0.1629 0.2396,0.3648 0.2396,0.6056 0,0.2408 -0.0799,0.4427 -0.2396,0.6056 C 16.2674,13.1185 16.0694,13.2 15.8333,13.2 Z M 12.5,16.6 c -0.2361,0 -0.434,-0.0815 -0.5938,-0.2444 -0.1597,-0.1629 -0.2395,-0.3648 -0.2395,-0.6056 0,-0.2408 0.0798,-0.4427 0.2395,-0.6056 C 12.066,14.9815 12.2639,14.9 12.5,14.9 c 0.2361,0 0.434,0.0815 0.5938,0.2444 0.1597,0.1629 0.2395,0.3648 0.2395,0.6056 0,0.2408 -0.0798,0.4427 -0.2395,0.6056 C 12.934,16.5185 12.7361,16.6 12.5,16.6 Z m -3.33333,0 C 8.93056,16.6 8.73264,16.5185 8.57292,16.3556 8.41319,16.1927 8.33333,15.9908 8.33333,15.75 c 0,-0.2408 0.07986,-0.4427 0.23959,-0.6056 C 8.73264,14.9815 8.93056,14.9 9.16667,14.9 c 0.23611,0 0.43402,0.0815 0.59375,0.2444 C 9.92014,15.3073 10,15.5092 10,15.75 10,15.9908 9.92014,16.1927 9.76042,16.3556 9.60069,16.5185 9.40278,16.6 9.16667,16.6 Z m 6.66663,0 c -0.2361,0 -0.434,-0.0815 -0.5937,-0.2444 C 15.0799,16.1927 15,15.9908 15,15.75 c 0,-0.2408 0.0799,-0.4427 0.2396,-0.6056 0.1597,-0.1629 0.3576,-0.2444 0.5937,-0.2444 0.2361,0 0.4341,0.0815 0.5938,0.2444 0.1597,0.1629 0.2396,0.3648 0.2396,0.6056 0,0.2408 -0.0799,0.4427 -0.2396,0.6056 C 16.2674,16.5185 16.0694,16.6 15.8333,16.6 Z"
       fill="#36c9b8"
       id="path1" />
  </g>
</svg>
