<?xml version="1.0" encoding="UTF-8" standalone="no"?>
<svg
   width="18"
   height="18"
   viewBox="0 0 18 18"
   fill="none"
   version="1.1"
   id="svg1"
   sodipodi:docname="icon-vaccination.svg"
   inkscape:export-filename="icon-vaccination.svg"
   inkscape:export-xdpi="300"
   inkscape:export-ydpi="300"
   xmlns:inkscape="http://www.inkscape.org/namespaces/inkscape"
   xmlns:sodipodi="http://sodipodi.sourceforge.net/DTD/sodipodi-0.dtd"
   xmlns="http://www.w3.org/2000/svg"
   xmlns:svg="http://www.w3.org/2000/svg">
  <defs
     id="defs1" />
  <sodipodi:namedview
     id="namedview1"
     pagecolor="#ffffff"
     bordercolor="#666666"
     borderopacity="1.0"
     inkscape:showpageshadow="2"
     inkscape:pageopacity="0.0"
     inkscape:pagecheckerboard="0"
     inkscape:deskcolor="#d1d1d1" />
  <g
     id="syringe"
     transform="translate(-3.010125,-1.91061)">
    <mask
       id="mask0_383_988"
       maskUnits="userSpaceOnUse"
       x="0"
       y="0"
       width="22"
       height="23">
      <rect
         id="Bounding box"
         width="21.610399"
         height="22.868999"
         fill="#d9d9d9"
         x="0"
         y="0" />
    </mask>
    <g
       mask="url(#mask0_383_988)"
       id="g1">
      <path
         id="syringe_2"
         d="M 3.51227,10.6486 C 3.34719,10.458 3.26465,10.2315 3.26465,9.96916 c 0,-0.26172 0.08254,-0.48787 0.24762,-0.67845 L 6.03348,6.62266 5.06552,5.59832 4.79539,5.88418 C 4.6153,6.07476 4.4016,6.17004 4.15428,6.17004 3.90636,6.17004 3.69235,6.07476 3.51227,5.88418 3.34719,5.70949 3.26465,5.48715 3.26465,5.21717 c 0,-0.26998 0.08254,-0.49232 0.24762,-0.66702 L 5.31314,2.6444 c 0.18008,-0.19057 0.39408,-0.28586 0.642,-0.28586 0.24732,0 0.46103,0.09529 0.64111,0.28586 0.16508,0.1747 0.24762,0.39703 0.24762,0.66701 0,0.26999 -0.08254,0.49232 -0.24762,0.66702 L 6.32612,4.26429 7.29409,5.28863 9.8153,2.62058 C 9.99539,2.43 10.2094,2.33472 10.4573,2.33472 c 0.2473,0 0.461,0.09528 0.6411,0.28586 0.1801,0.19057 0.2702,0.41672 0.2702,0.67845 0,0.26236 -0.0901,0.48882 -0.2702,0.6794 l -0.6078,0.61937 6.6407,7.0275 c 0.3452,0.3652 0.5178,0.8137 0.5178,1.3454 0,0.5324 -0.1726,0.9812 -0.5178,1.3464 l -0.6303,0.6909 4.2546,4.4785 h -2.5663 l -2.9714,-3.1445 -0.6303,0.6908 c -0.3452,0.3653 -0.769,0.5479 -1.2714,0.5479 -0.5031,0 -0.9272,-0.1826 -1.2723,-0.5479 L 5.40318,10.0054 4.79539,10.6486 c -0.18009,0.1747 -0.39379,0.262 -0.64111,0.262 -0.24792,0 -0.46193,-0.0873 -0.64201,-0.262 z M 6.66379,8.67134 13.3045,15.6988 15.8482,12.9831 14.4976,11.53 13.237,12.864 c -0.1801,0.1747 -0.3938,0.2659 -0.6412,0.2735 -0.2479,0.0082 -0.4544,-0.075 -0.6195,-0.2497 -0.18,-0.1906 -0.2701,-0.417 -0.2701,-0.6794 0,-0.2617 0.0901,-0.4879 0.2701,-0.6784 L 13.237,10.1959 11.8863,8.76663 10.6257,10.1007 c -0.1801,0.1747 -0.3938,0.262 -0.64111,0.262 -0.24792,0 -0.46193,-0.0873 -0.64201,-0.262 C 9.1775,9.91008 9.09496,9.68362 9.09496,9.42126 9.09496,9.15953 9.1775,8.93338 9.34258,8.74281 L 10.6032,7.40878 9.23002,5.95565 Z"
         fill="#36c9b8" />
    </g>
  </g>
</svg>
