<svg width="15" height="14" viewBox="0 0 15 14" fill="none" xmlns="http://www.w3.org/2000/svg">
<g id="atom_dog">
<path id="Vector" d="M11.7906 3.39563L9.95413 0.705743C9.81801 0.506795 9.63709 0.343601 9.42637 0.229686C9.21564 0.11577 8.98118 0.0544128 8.74241 0.0506976L5.25719 0H5.25C3.45066 0 2.07009 0.305168 1.18094 1.79451C0.353125 3.18083 0 5.54236 0 9.6907V10.1977H1.14241L0.407 14H1.42606L2.16147 10.1977H2.5C3.31662 10.2051 4.10333 9.88648 4.69025 9.31072C5.22084 8.79595 5.60356 8.09169 5.79709 7.27413L5.79884 7.26678L6.65644 3.1H5.63487L4.82303 7.04453C4.57578 8.08003 3.83644 9.18372 2.5 9.18372H1.00188C1.02903 5.59477 1.35131 3.46696 2.03641 2.31945C2.61141 1.35619 3.45188 1.01427 5.24653 1.01379L8.72803 1.06449C8.80762 1.06572 8.88578 1.08617 8.95603 1.12414C9.02627 1.16211 9.08657 1.21652 9.13194 1.28284L11.2094 4.3253L14 4.79692V5.33428L13.5346 7.85082C13.3973 8.59357 13.1625 8.96772 12.1997 9.08499L8.25263 9.76969L8.22653 14H9.22653L9.24737 10.6257L12.3317 10.0902C13.0305 10.0031 13.546 9.77473 13.9076 9.39234C14.2166 9.06541 14.4047 8.64772 14.5175 8.0377L15 5.42851V3.93797L11.7906 3.39563Z" fill="#36C9B8"/>
</g>
</svg>
