<svg width="21" height="21" viewBox="0 0 21 21" fill="none" xmlns="http://www.w3.org/2000/svg">
<mask id="mask0_238_2326" style="mask-type:alpha" maskUnits="userSpaceOnUse" x="0" y="0" width="21" height="21">
<rect width="21" height="21" fill="#D9D9D9"/>
</mask>
<g mask="url(#mask0_238_2326)">
<path d="M3.9375 10.6094C3.325 10.6094 2.80729 10.3979 2.38438 9.975C1.96146 9.55208 1.75 9.03438 1.75 8.42188C1.75 7.80937 1.96146 7.29167 2.38438 6.86875C2.80729 6.44583 3.325 6.23438 3.9375 6.23438C4.55 6.23438 5.06771 6.44583 5.49063 6.86875C5.91354 7.29167 6.125 7.80937 6.125 8.42188C6.125 9.03438 5.91354 9.55208 5.49063 9.975C5.06771 10.3979 4.55 10.6094 3.9375 10.6094ZM7.875 7.10938C7.2625 7.10938 6.74479 6.89792 6.32188 6.475C5.89896 6.05208 5.6875 5.53437 5.6875 4.92188C5.6875 4.30938 5.89896 3.79167 6.32188 3.36875C6.74479 2.94583 7.2625 2.73438 7.875 2.73438C8.4875 2.73438 9.00521 2.94583 9.42813 3.36875C9.85104 3.79167 10.0625 4.30938 10.0625 4.92188C10.0625 5.53437 9.85104 6.05208 9.42813 6.475C9.00521 6.89792 8.4875 7.10938 7.875 7.10938ZM13.125 7.10938C12.5125 7.10938 11.9948 6.89792 11.5719 6.475C11.149 6.05208 10.9375 5.53437 10.9375 4.92188C10.9375 4.30938 11.149 3.79167 11.5719 3.36875C11.9948 2.94583 12.5125 2.73438 13.125 2.73438C13.7375 2.73438 14.2552 2.94583 14.6781 3.36875C15.101 3.79167 15.3125 4.30938 15.3125 4.92188C15.3125 5.53437 15.101 6.05208 14.6781 6.475C14.2552 6.89792 13.7375 7.10938 13.125 7.10938ZM17.0625 10.6094C16.45 10.6094 15.9323 10.3979 15.5094 9.975C15.0865 9.55208 14.875 9.03438 14.875 8.42188C14.875 7.80937 15.0865 7.29167 15.5094 6.86875C15.9323 6.44583 16.45 6.23438 17.0625 6.23438C17.675 6.23438 18.1927 6.44583 18.6156 6.86875C19.0385 7.29167 19.25 7.80937 19.25 8.42188C19.25 9.03438 19.0385 9.55208 18.6156 9.975C18.1927 10.3979 17.675 10.6094 17.0625 10.6094ZM5.81875 19.3594C5.1625 19.3594 4.61198 19.1078 4.16719 18.6047C3.7224 18.1016 3.5 17.5073 3.5 16.8219C3.5 16.0635 3.75885 15.4 4.27656 14.8313C4.79427 14.2625 5.30833 13.701 5.81875 13.1469C6.24167 12.6948 6.60625 12.2026 6.9125 11.6703C7.21875 11.138 7.58333 10.6385 8.00625 10.1719C8.32708 9.79271 8.69896 9.47917 9.12188 9.23125C9.54479 8.98333 10.0042 8.85938 10.5 8.85938C10.9958 8.85938 11.4552 8.97604 11.8781 9.20937C12.301 9.44271 12.6729 9.74896 12.9938 10.1281C13.4021 10.5948 13.763 11.0979 14.0766 11.6375C14.3901 12.1771 14.7583 12.6802 15.1813 13.1469C15.6917 13.701 16.2057 14.2625 16.7234 14.8313C17.2411 15.4 17.5 16.0635 17.5 16.8219C17.5 17.5073 17.2776 18.1016 16.8328 18.6047C16.388 19.1078 15.8375 19.3594 15.1813 19.3594C14.3938 19.3594 13.6135 19.2937 12.8406 19.1625C12.0677 19.0312 11.2875 18.9656 10.5 18.9656C9.7125 18.9656 8.93229 19.0312 8.15938 19.1625C7.38646 19.2937 6.60625 19.3594 5.81875 19.3594Z" fill="#1C1B1F"/>
</g>
</svg>
