<svg width="311" height="133" viewBox="0 0 311 133" fill="none" xmlns="http://www.w3.org/2000/svg">
<g clip-path="url(#clip0_44_616)">
<path d="M68.2627 74.1976C68.2655 73.7894 68.184 73.3849 68.0233 73.0096C67.8626 72.6342 67.6261 72.296 67.3286 72.0159C67.0311 71.7359 66.6789 71.5202 66.2941 71.3821C65.9093 71.2441 65.5002 71.1867 65.0922 71.2136C64.6842 71.2405 64.2862 71.3511 63.9229 71.5385C63.5596 71.7259 63.239 71.986 62.9809 72.3027C62.7229 72.6193 62.533 72.9857 62.4231 73.3789C62.3132 73.7721 62.2858 74.1837 62.3424 74.588L53.7964 85.7615C53.4317 86.4896 53.2903 87.309 53.3899 88.117C53.4895 88.9251 53.8257 89.6858 54.3564 90.3039L55.0268 91.0847L58.1027 90.4705L61.5888 87.3994L61.1786 83.9188L65.485 77.1625L65.4795 77.1576C66.2333 77.1097 66.9405 76.777 67.4575 76.2272C67.9744 75.6774 68.2624 74.9517 68.2627 74.1976Z" fill="#FFB9B9"/>
<path d="M9.16407 128.823L7.76904 123.65L27.0889 115.817L29.1477 123.452L9.16407 128.823Z" fill="#FFB8B8"/>
<path d="M4.49778 131.493L0 114.814L0.211295 114.757C1.93577 114.293 3.77403 114.533 5.32174 115.422C6.86944 116.312 7.99984 117.779 8.46429 119.501L8.4644 119.501L11.2115 129.688L4.49778 131.493Z" fill="#2F2E41"/>
<path d="M35.7766 127.997L31.4375 124.846L41.5443 106.636L47.9487 111.286L35.7766 127.997Z" fill="#FFB8B8"/>
<path d="M33.8243 133L19.8325 122.841L19.9612 122.664C21.0116 121.222 22.5927 120.256 24.3567 119.978C26.1207 119.7 27.9231 120.132 29.3676 121.181L29.3679 121.181L37.9136 127.386L33.8243 133Z" fill="#2F2E41"/>
<path d="M72.6621 102.55L61.7426 91.9592C60.7896 91.035 59.5344 90.4853 58.2078 90.4113C56.8813 90.3373 55.5726 90.744 54.5224 91.5566L33.9048 114.425L35.7504 117.291L55.4366 103.983L68.7658 121.386L81.4798 115.039L72.6621 102.55Z" fill="#2F2E41"/>
<path d="M67.9454 104.802L59.9479 104.188L54.1561 102.786C53.8289 102.276 53.3537 101.879 52.7939 101.646C52.2342 101.414 51.6167 101.358 51.0241 101.485C50.4315 101.613 49.8921 101.918 49.4781 102.36C49.0641 102.803 48.7952 103.36 48.7076 103.959C48.6199 104.558 48.7175 105.17 48.9875 105.711C49.2574 106.253 49.6867 106.7 50.2179 106.992C50.7491 107.283 51.3569 107.406 51.9598 107.343C52.5628 107.28 53.1322 107.035 53.5917 106.641L53.5909 106.645L57.077 108.078L72.0467 113.196L73.8923 111.763L67.9454 104.802Z" fill="#FFB9B9"/>
<path d="M87.2219 126.914L82.7104 129.78H77.3786L52.5659 120.567L16.2694 127.119L15.2441 119.338L48.4648 104.802L77.5839 114.425L87.2219 126.914Z" fill="#2F2E41"/>
<path d="M77.5835 77.1626C82.0004 77.1626 85.581 73.5877 85.581 69.1778C85.581 64.7679 82.0004 61.193 77.5835 61.193C73.1666 61.193 69.5859 64.7679 69.5859 69.1778C69.5859 73.5877 73.1666 77.1626 77.5835 77.1626Z" fill="#FFB9B9"/>
<path d="M98.2767 101.057C98.2766 105.876 97.5161 110.665 96.0231 115.248L95.4243 117.086L92.5534 130.19L89.4774 131.009L87.2217 128.142L82.7103 124.866L79.4292 119.543L76.6157 114.863L75.738 113.401L72.6621 98.0458L60.9734 91.4942L57.0771 90.88L57.8974 88.6278L61.3835 83.9189L64.8696 83.5094L65.8949 82.6904L66.7152 83.0999L71.2369 84.839L85.897 78.655L88.0419 79.0051L95.4243 85.1473C97.3115 90.2401 98.2773 95.6272 98.2767 101.057Z" fill="#CCCCCC"/>
<path opacity="0.1" d="M96.0394 99.2743L88.2471 104.393L76.6159 114.863L75.7382 113.401L73.2773 101.117H73.8926L80.2497 89.447L96.0394 99.2743Z" fill="black"/>
<path d="M80.2495 88.2184L73.8925 99.8883L70.2013 103.983L66.9204 104.802L75.7381 114.425L88.2469 103.164L96.0392 98.0456L80.2495 88.2184Z" fill="#CCCCCC"/>
<path d="M71.363 63.2407L70.4965 63.5736C70.3649 63.4846 70.2522 63.3707 70.1648 63.2383C70.0773 63.1059 70.0169 62.9576 69.9868 62.8019C69.9568 62.6461 69.9578 62.486 69.9897 62.3307C70.0217 62.1753 70.0839 62.0277 70.173 61.8964C70.1777 61.8895 70.1824 61.8827 70.1872 61.8759L68.5859 61.8011C69.6139 60.4342 70.9208 59.3009 72.4202 58.476C73.9197 57.6512 75.5775 57.1536 77.2839 57.0163C78.9904 56.879 80.7066 57.105 82.319 57.6794C83.9314 58.2539 85.4032 59.1636 86.6372 60.3484C86.7101 60.0977 87.5048 60.5855 87.8293 61.08C87.9383 60.6721 88.6834 62.6441 88.947 64.038C89.069 63.5739 89.5382 64.3231 89.1272 65.0421C89.3876 65.0041 89.5052 65.6693 89.3036 66.0399C89.5885 65.9063 89.5405 66.7004 89.2316 67.2311C89.6381 67.195 89.1969 75.5554 83.0958 74.9462C82.671 72.9977 82.7907 73.1188 82.2906 70.6133C82.0578 70.3666 81.8028 70.1419 81.5483 69.9176L80.1717 68.7044C78.571 67.2937 77.1149 65.5526 74.9824 65.0253C73.517 64.663 72.5904 64.5812 73.389 62.9325C72.6674 63.2331 71.9936 63.6802 71.2656 63.9594C71.2754 63.729 71.3771 63.4712 71.363 63.2407Z" fill="#2F2E41"/>
<path d="M81.5824 71.5322C82.3752 71.5322 83.0179 70.8906 83.0179 70.0991C83.0179 69.3075 82.3752 68.6659 81.5824 68.6659C80.7896 68.6659 80.147 69.3075 80.147 70.0991C80.147 70.8906 80.7896 71.5322 81.5824 71.5322Z" fill="#FFB9B9"/>
<path d="M14.6422 36.2506L14.2041 42.8179L20.7818 43.2552L21.2199 36.688L14.6422 36.2506Z" fill="#E6E6E6"/>
<path d="M10.3981 39.7378L18.3854 40.2689L17.8534 48.2434L9.86621 47.7123L10.3981 39.7378ZM18.015 40.5925L10.7223 40.1076L10.2366 47.3886L17.5293 47.8735L18.015 40.5925Z" fill="#CCCCCC"/>
<path d="M51.8138 16.7769L45.3687 18.1595L46.7535 24.5945L53.1987 23.2118L51.8138 16.7769Z" fill="#E6E6E6"/>
<path d="M47.2902 13.66L48.9718 21.4739L41.1455 23.1528L39.4639 15.339L47.2902 13.66ZM48.5584 21.2071L47.023 14.0728L39.8773 15.6057L41.4127 22.7401L48.5584 21.2071Z" fill="#CCCCCC"/>
<path d="M45.0413 47.6796L40.23 52.1791L44.7366 56.9827L49.5479 52.4833L45.0413 47.6796Z" fill="#E6E6E6"/>
<path d="M49.8942 47.0064L44.0519 52.4701L38.5796 46.6371L44.4219 41.1735L49.8942 47.0064ZM44.068 51.9789L49.4023 46.9904L44.4058 41.6646L39.0715 46.6531L44.068 51.9789Z" fill="#CCCCCC"/>
<path d="M293.854 0H98.806C98.101 -7.99931e-07 97.4029 0.138638 96.7516 0.408002C96.1002 0.677365 95.5084 1.07218 95.0099 1.5699C94.5114 2.06761 94.116 2.65849 93.8462 3.3088C93.5764 3.9591 93.4375 4.65609 93.4375 5.35997V113.864C93.4375 114.568 93.5764 115.265 93.8462 115.915C94.1159 116.565 94.5114 117.156 95.0099 117.654C95.5084 118.152 96.1002 118.546 96.7516 118.816C97.4029 119.085 98.101 119.224 98.806 119.224H293.854C295.278 119.224 296.643 118.659 297.65 117.654C298.657 116.649 299.222 115.285 299.222 113.864V5.35997C299.222 3.93842 298.657 2.57509 297.65 1.5699C296.643 0.564711 295.278 8.0777e-07 293.854 0Z" fill="#3F3D56"/>
<path d="M292.024 9.47253H100.635V117.264H292.024V9.47253Z" fill="white"/>
<path d="M196.166 6.53284C197.25 6.53284 198.129 5.65539 198.129 4.573C198.129 3.49061 197.25 2.61316 196.166 2.61316C195.082 2.61316 194.203 3.49061 194.203 4.573C194.203 5.65539 195.082 6.53284 196.166 6.53284Z" fill="white"/>
<path d="M237.29 117.264H100.635V9.47278L237.29 117.264Z" fill="#F2F2F2"/>
<path d="M130.582 109.198C140.742 109.198 148.978 100.974 148.978 90.8302C148.978 80.686 140.742 72.4625 130.582 72.4625C120.421 72.4625 112.185 80.686 112.185 90.8302C112.185 100.974 120.421 109.198 130.582 109.198Z" fill="#36C9B8"/>
<path d="M134.677 104.635C130.151 104.635 125.727 103.295 121.963 100.785C118.2 98.2741 115.267 94.7058 113.535 90.531C111.803 86.3561 111.35 81.7623 112.233 77.3303C113.116 72.8983 115.295 68.8272 118.496 65.632C121.696 62.4367 125.773 60.2607 130.213 59.3791C134.652 58.4975 139.253 58.95 143.434 60.6792C147.616 62.4085 151.19 65.337 153.704 69.0942C156.219 72.8515 157.561 77.2688 157.561 81.7876C157.561 84.788 156.969 87.759 155.819 90.531C154.669 93.303 152.983 95.8217 150.858 97.9433C148.733 100.065 146.211 101.748 143.434 102.896C140.658 104.044 137.682 104.635 134.677 104.635ZM134.677 59.2387C130.21 59.2387 125.844 60.5612 122.129 63.0389C118.415 65.5166 115.521 69.0382 113.811 73.1585C112.102 77.2788 111.655 81.8126 112.526 86.1867C113.397 90.5607 115.548 94.5786 118.707 97.7321C121.866 100.886 125.89 103.033 130.271 103.903C134.652 104.773 139.193 104.327 143.32 102.62C147.447 100.913 150.974 98.0233 153.456 94.3151C155.937 90.607 157.262 86.2474 157.262 81.7876C157.262 78.8265 156.678 75.8943 155.543 73.1585C154.408 70.4228 152.744 67.937 150.647 65.8432C148.55 63.7493 146.06 62.0884 143.32 60.9552C140.58 59.822 137.643 59.2387 134.677 59.2387Z" fill="#3F3D56"/>
<path d="M247.719 65.4733H229.841V69.203H247.719V65.4733Z" fill="#3F3D56"/>
<path d="M264.633 45.2672H212.927V46.8657H264.633V45.2672Z" fill="#3F3D56"/>
<path d="M264.633 51.5474H212.927V53.1458H264.633V51.5474Z" fill="#3F3D56"/>
<path d="M264.633 57.8274H212.927V59.4258H264.633V57.8274Z" fill="#3F3D56"/>
<path d="M278.484 15.9235H271.013V23.3829H278.484V15.9235Z" fill="#36C9B8"/>
<path d="M281.952 26.8461H272.88V17.7882H281.952V26.8461ZM273.274 26.4523H281.558V18.182H273.274L273.274 26.4523Z" fill="#CCCCCC"/>
<path d="M304.596 115.304H285.917V113.96C285.917 113.925 285.911 113.891 285.897 113.858C285.884 113.826 285.864 113.797 285.839 113.772C285.815 113.747 285.785 113.728 285.753 113.714C285.72 113.701 285.686 113.694 285.651 113.694H279.247C279.212 113.694 279.177 113.701 279.145 113.714C279.112 113.728 279.083 113.747 279.058 113.772C279.033 113.797 279.014 113.826 279 113.858C278.987 113.891 278.98 113.925 278.98 113.96V115.304H274.977V113.96C274.977 113.925 274.97 113.891 274.957 113.858C274.944 113.826 274.924 113.797 274.899 113.772C274.874 113.747 274.845 113.728 274.813 113.714C274.78 113.701 274.746 113.694 274.71 113.694H268.306C268.271 113.694 268.237 113.701 268.204 113.714C268.172 113.728 268.143 113.747 268.118 113.772C268.093 113.797 268.073 113.826 268.06 113.858C268.047 113.891 268.04 113.925 268.04 113.96V115.304H264.037V113.96C264.037 113.925 264.03 113.891 264.017 113.858C264.003 113.826 263.984 113.797 263.959 113.772C263.934 113.747 263.905 113.728 263.872 113.714C263.84 113.701 263.805 113.694 263.77 113.694H257.366C257.331 113.694 257.297 113.701 257.264 113.714C257.232 113.728 257.202 113.747 257.178 113.772C257.153 113.797 257.133 113.826 257.12 113.858C257.106 113.891 257.099 113.925 257.099 113.96V115.304H253.097V113.96C253.097 113.925 253.09 113.891 253.077 113.858C253.063 113.826 253.044 113.797 253.019 113.772C252.994 113.747 252.965 113.728 252.932 113.714C252.9 113.701 252.865 113.694 252.83 113.694H246.426C246.391 113.694 246.356 113.701 246.324 113.714C246.292 113.728 246.262 113.747 246.237 113.772C246.213 113.797 246.193 113.826 246.18 113.858C246.166 113.891 246.159 113.925 246.159 113.96V115.304H242.157V113.96C242.157 113.925 242.15 113.891 242.136 113.858C242.123 113.826 242.103 113.797 242.079 113.772C242.054 113.747 242.024 113.728 241.992 113.714C241.96 113.701 241.925 113.694 241.89 113.694H235.486C235.451 113.694 235.416 113.701 235.384 113.714C235.351 113.728 235.322 113.747 235.297 113.772C235.272 113.797 235.253 113.826 235.239 113.858C235.226 113.891 235.219 113.925 235.219 113.96V115.304H231.217V113.96C231.217 113.925 231.21 113.891 231.196 113.858C231.183 113.826 231.163 113.797 231.138 113.772C231.114 113.747 231.084 113.728 231.052 113.714C231.019 113.701 230.985 113.694 230.95 113.694H224.546C224.511 113.694 224.476 113.701 224.444 113.714C224.411 113.728 224.382 113.747 224.357 113.772C224.332 113.797 224.313 113.826 224.299 113.858C224.286 113.891 224.279 113.925 224.279 113.96V115.304H220.276V113.96C220.276 113.925 220.269 113.891 220.256 113.858C220.243 113.826 220.223 113.797 220.198 113.772C220.173 113.747 220.144 113.728 220.112 113.714C220.079 113.701 220.045 113.694 220.01 113.694H169.845C169.81 113.694 169.775 113.701 169.743 113.714C169.71 113.728 169.681 113.747 169.656 113.772C169.631 113.797 169.612 113.826 169.598 113.858C169.585 113.891 169.578 113.925 169.578 113.96V115.304H165.575V113.96C165.575 113.925 165.568 113.891 165.555 113.858C165.542 113.826 165.522 113.797 165.497 113.772C165.472 113.747 165.443 113.728 165.411 113.714C165.378 113.701 165.344 113.694 165.309 113.694H158.905C158.869 113.694 158.835 113.701 158.802 113.714C158.77 113.728 158.741 113.747 158.716 113.772C158.691 113.797 158.671 113.826 158.658 113.858C158.645 113.891 158.638 113.925 158.638 113.96V115.304H154.635V113.96C154.635 113.925 154.628 113.891 154.615 113.858C154.601 113.826 154.582 113.797 154.557 113.772C154.532 113.747 154.503 113.728 154.47 113.714C154.438 113.701 154.403 113.694 154.368 113.694H147.964C147.929 113.694 147.895 113.701 147.862 113.714C147.83 113.728 147.8 113.747 147.776 113.772C147.751 113.797 147.731 113.826 147.718 113.858C147.704 113.891 147.697 113.925 147.697 113.96V115.304H143.695V113.96C143.695 113.925 143.688 113.891 143.675 113.858C143.661 113.826 143.642 113.797 143.617 113.772C143.592 113.747 143.563 113.728 143.53 113.714C143.498 113.701 143.463 113.694 143.428 113.694H137.024C136.989 113.694 136.954 113.701 136.922 113.714C136.89 113.728 136.86 113.747 136.835 113.772C136.811 113.797 136.791 113.826 136.778 113.858C136.764 113.891 136.757 113.925 136.757 113.96V115.304H132.755V113.96C132.755 113.925 132.748 113.891 132.734 113.858C132.721 113.826 132.701 113.797 132.677 113.772C132.652 113.747 132.622 113.728 132.59 113.714C132.558 113.701 132.523 113.694 132.488 113.694H126.084C126.049 113.694 126.014 113.701 125.982 113.714C125.949 113.728 125.92 113.747 125.895 113.772C125.87 113.797 125.851 113.826 125.837 113.858C125.824 113.891 125.817 113.925 125.817 113.96V115.304H121.815V113.96C121.815 113.925 121.808 113.891 121.794 113.858C121.781 113.826 121.761 113.797 121.736 113.772C121.712 113.747 121.682 113.728 121.65 113.714C121.617 113.701 121.583 113.694 121.548 113.694H115.144C115.073 113.694 115.005 113.722 114.955 113.772C114.905 113.822 114.877 113.89 114.877 113.96V115.304H110.874V113.96C110.874 113.925 110.867 113.891 110.854 113.858C110.841 113.826 110.821 113.797 110.796 113.772C110.771 113.747 110.742 113.728 110.71 113.714C110.677 113.701 110.643 113.694 110.608 113.694H104.204C104.133 113.694 104.065 113.722 104.015 113.772C103.965 113.822 103.937 113.89 103.937 113.96V115.304H91.6623C89.9639 115.304 88.335 115.978 87.134 117.177C85.933 118.376 85.2583 120.002 85.2583 121.698V124.589C85.2583 126.285 85.933 127.911 87.134 129.11C88.335 130.309 89.9639 130.983 91.6623 130.983H304.596C306.294 130.983 307.923 130.309 309.124 129.11C310.325 127.911 311 126.285 311 124.589V121.698C311 120.858 310.834 120.027 310.512 119.251C310.191 118.475 309.719 117.77 309.124 117.177C308.53 116.583 307.824 116.112 307.047 115.791C306.27 115.469 305.437 115.304 304.596 115.304Z" fill="#3F3D56"/>
</g>
<defs>
<clipPath id="clip0_44_616">
<rect width="311" height="133" fill="white"/>
</clipPath>
</defs>
</svg>
